<svg xmlns="http://www.w3.org/2000/svg" viewBox="0 0 1019.61 279.88"><defs><style>.cls-1{fill:#39b54a;}.cls-2{fill:#019540;}.cls-3{fill:#43c443;}.cls-4{fill:#673ab8;}.cls-5{fill:#7248cc;}.cls-6{fill:#fcac01;}.cls-7{fill:#ea382a;}.cls-8{fill:#412296;}.cls-9{fill:#fff;}.cls-10{fill:#04a6e6;}.cls-11{fill:#f0b003;}.cls-12{fill:#50d146;}.cls-13{fill:#ff0080;}.cls-14{fill:#fe413a;}.cls-15{fill:#f8ca1d;}.cls-16{fill:#f3a61c;}.cls-17{fill:#04aae7;}.cls-18{fill:#03cafd;}.cls-19{fill:#fe8125;}.cls-20{fill:#5e55f3;}.cls-21{fill:#ee5d4a;}.cls-22{fill:#00aee5;}.cls-23{fill:#1c7dc3;}.cls-24{fill:#ffec01;}</style></defs><title>hb_rus@72x-100</title><g id="Слой_2" data-name="Слой 2"><g id="Слой_1-2" data-name="Слой 1"><path class="cls-1" d="M1007.61,46.69H988a12,12,0,0,0-11.24-8H938.72a11.83,11.83,0,0,0-2.13.2,12,12,0,0,0-9.49-4.7H898.85A12,12,0,0,0,886.9,45.12H851.17V42.56a12,12,0,0,0-12-12H683.51a12,12,0,0,0-12,12v1.73H619.1a12,12,0,0,0-11.83-10.1H403.18a12,12,0,0,0-9.79,5.1H340.14a12,12,0,0,0-11.93-10.73H265V20.7a12,12,0,0,0-12-12H75.71a12,12,0,0,0-12,12v.74H42.58A12,12,0,0,0,30.73,31.64H12a12,12,0,0,0-12,12V238.21a12,12,0,0,0,12,12H31a12,12,0,0,0,11.63,9.09H152.37A12,12,0,0,0,164,250.21H265v.85a8.26,8.26,0,0,0,8.24,8.24h78.47a12,12,0,0,0,10.65,6.5H465.68a12,12,0,0,0,12-12v-2.74h55.79a9.55,9.55,0,0,0,9.43,8.24h36.64a9.56,9.56,0,0,0,9.09-6.68H668a12,12,0,0,0,10.37,6h90.46a12,12,0,0,0,11.83,10h58.55a12,12,0,0,0,11.7-9.36h69.4a12,12,0,0,0,11.38-8.24h76a12,12,0,0,0,12-12V58.69A12,12,0,0,0,1007.61,46.69Z"/><path class="cls-2" d="M603.4,133.81l-.08-.2a2.6,2.6,0,0,0-.84-.91,2.22,2.22,0,0,0-1.25-.4h-9.59a2.22,2.22,0,0,0-1.25.4,2.49,2.49,0,0,0-.86,1l-8.23,28.82a1.63,1.63,0,0,0,.39,1.54,1.76,1.76,0,0,0,1.33.59h4.52a2.24,2.24,0,0,0,1.36-.47,2.1,2.1,0,0,0,.81-1.12L592,155.2h0l9,0,2.25,7.86a2,2,0,0,0,.89,1.15,2.34,2.34,0,0,0,1.29.41h4.52a1.76,1.76,0,0,0,1.29-.52,1.69,1.69,0,0,0,.51-1.21l-.08-.48Zm-4.48,14.32H594l2.34-8.07h.22Z"/><path class="cls-2" d="M640,132.35h-4.84a2,2,0,0,0-1.34.48,1.75,1.75,0,0,0-.64,1.38l.08,14.26-9.75-15.25,0-.06a1.93,1.93,0,0,0-1.55-.8h-4.71a2,2,0,0,0-1.34.48,1.75,1.75,0,0,0-.64,1.37v28.46a1.75,1.75,0,0,0,.64,1.37,2,2,0,0,0,1.34.48h4.61a1.93,1.93,0,0,0,1.32-.53,1.77,1.77,0,0,0,.61-1.33l-.08-14.36,10.11,14.83a2.69,2.69,0,0,0,1.24,1.15,4.58,4.58,0,0,0,1.7.24H640a2,2,0,0,0,1.34-.48,1.78,1.78,0,0,0,.64-1.37V134.2a1.78,1.78,0,0,0-.64-1.37A2,2,0,0,0,640,132.35Z"/><path class="cls-2" d="M667.7,134.57a17.92,17.92,0,0,0-8.62-2.14h-9.23a2.23,2.23,0,0,0-1.6.64,2.14,2.14,0,0,0-.66,1.56v27.31a2.39,2.39,0,0,0,.79,1.79,2.65,2.65,0,0,0,1.83.7h8.86a17.92,17.92,0,0,0,8.62-2.14,16.79,16.79,0,0,0,6.28-5.8,15,15,0,0,0,0-16.11A16.73,16.73,0,0,0,667.7,134.57Zm-4.21,20.76a9.15,9.15,0,0,1-4.41,1.1h-3v-16h3a9.15,9.15,0,0,1,4.41,1.1,8.59,8.59,0,0,1,3.2,2.95,7.19,7.19,0,0,1,1.16,4,7.08,7.08,0,0,1-1.16,3.95A8.64,8.64,0,0,1,663.48,155.33Z"/><path class="cls-2" d="M700,151.18a11.49,11.49,0,0,0,3-3.52,9.59,9.59,0,0,0,1.2-4.65,9.81,9.81,0,0,0-1.61-5.44,11.24,11.24,0,0,0-4.31-3.86,12.61,12.61,0,0,0-5.89-1.41h-9.69a2.18,2.18,0,0,0-1.5.57,1.94,1.94,0,0,0-.66,1.45v28.29a1.94,1.94,0,0,0,.66,1.45,2.18,2.18,0,0,0,1.51.57h3.69a2.18,2.18,0,0,0,1.51-.57,1.94,1.94,0,0,0,.66-1.45v-8.91h3.83l4.72,9.71a1.94,1.94,0,0,0,1.16,1.07,4.05,4.05,0,0,0,1.18.15h4.06a1.69,1.69,0,0,0,1.88-1.73,2.34,2.34,0,0,0-.28-1.1ZM695.57,143a2.42,2.42,0,0,1-.88,1.86,3.16,3.16,0,0,1-2.22.84h-3.84v-5.39h3.83a3.19,3.19,0,0,1,2.24.82A2.4,2.4,0,0,1,695.57,143Z"/><path class="cls-2" d="M737.62,136.27a18.09,18.09,0,0,0-4.74-2.91,18.41,18.41,0,0,0-8.07-1.39h-.19a17.46,17.46,0,0,0-7.08,1.7,23.47,23.47,0,0,0-5.53,4.1,16.27,16.27,0,0,0-3.14,5,15.46,15.46,0,0,0-1.08,5.69,15.66,15.66,0,0,0,.88,5.17l.17.33a15.71,15.71,0,0,0,3.61,5.66,17.51,17.51,0,0,0,5.86,3.94,19.49,19.49,0,0,0,15.4-.41,18.53,18.53,0,0,0,3.55-2.2,16.92,16.92,0,0,0,5.26-7.47,15.25,15.25,0,0,0,.86-5,15.53,15.53,0,0,0-2.33-8.2A14.13,14.13,0,0,0,737.62,136.27ZM729.84,156a9.67,9.67,0,0,1-4.16.89,10.23,10.23,0,0,1-3.23-.53,9.54,9.54,0,0,1-2.82-1.48,9,9,0,0,1-2.44-3,7.74,7.74,0,0,1-.84-3.52,8.17,8.17,0,0,1,2.08-5.5l.74-.69a8.44,8.44,0,0,1,2.9-1.74,10.39,10.39,0,0,1,3.5-.6,9.9,9.9,0,0,1,3.82.73,9,9,0,0,1,4,3.21,7.89,7.89,0,0,1,1.45,4.58,7.69,7.69,0,0,1-.79,3.42,8.41,8.41,0,0,1-1.68,2.28l-1.16,1.17Z"/><path class="cls-2" d="M755.39,132.27h-4.8a2.21,2.21,0,0,0-1.46.55,2,2,0,0,0-.7,1.51v28.24a1.94,1.94,0,0,0,.66,1.45,2.18,2.18,0,0,0,1.5.57h4.8a2.09,2.09,0,0,0,1.51-.6,2,2,0,0,0,.61-1.43V134.33a2,2,0,0,0-.66-1.49A2.12,2.12,0,0,0,755.39,132.27Z"/><path class="cls-2" d="M784.54,134.57a17.92,17.92,0,0,0-8.62-2.14h-9.23a2.23,2.23,0,0,0-1.6.64,2.14,2.14,0,0,0-.66,1.56v27.31a2.39,2.39,0,0,0,.79,1.79,2.65,2.65,0,0,0,1.83.7h8.86a17.92,17.92,0,0,0,8.62-2.14,16.79,16.79,0,0,0,6.28-5.8,15,15,0,0,0,0-16.11A16.73,16.73,0,0,0,784.54,134.57Zm-4.21,20.76a9.15,9.15,0,0,1-4.41,1.1h-3v-16h3a9.15,9.15,0,0,1,4.41,1.1,8.59,8.59,0,0,1,3.2,2.95,7.19,7.19,0,0,1,1.16,4,7.08,7.08,0,0,1-1.16,3.95A8.64,8.64,0,0,1,780.32,155.33Z"/><path class="cls-2" d="M815.61,133.7a11.87,11.87,0,0,0-5.74-1.44H799.67a2.12,2.12,0,0,0-1.46.57,2,2,0,0,0-.66,1.49v3.91a2,2,0,0,0,.66,1.49,2.12,2.12,0,0,0,1.46.57h10.19a3,3,0,0,1,2.16.81,2.46,2.46,0,0,1,.84,1.89,2.35,2.35,0,0,1-.86,1.84,3.07,3.07,0,0,1-2.15.82H799.67a2.12,2.12,0,0,0-1.46.57,2,2,0,0,0-.66,1.49v14.84a1.94,1.94,0,0,0,.66,1.45,2.12,2.12,0,0,0,1.46.57h3.55a2.23,2.23,0,0,0,1.48-.53,1.91,1.91,0,0,0,.68-1.49v-8.86h4.48a11.86,11.86,0,0,0,5.74-1.44,11.37,11.37,0,0,0,4.2-3.88,9.85,9.85,0,0,0,1.58-5.39,10,10,0,0,0-1.58-5.41A11.31,11.31,0,0,0,815.61,133.7Z"/><path class="cls-2" d="M834.8,132.92a2.18,2.18,0,0,0-1.51-.57h-4.06a2.67,2.67,0,0,0-1.42.31l-.2.16-3.42,3.2c-.9.86-2.2,2.07-4,3.71l-3.8,3.51-.13.14a2.25,2.25,0,0,0-.46,1.33,2,2,0,0,0,.68,1.47l2.86,2.59a2.14,2.14,0,0,0,1.48.55,2.11,2.11,0,0,0,1.44-.51l3.73-3.06a3,3,0,0,0,.83-1.28v18.1a1.94,1.94,0,0,0,.66,1.45,2.12,2.12,0,0,0,1.46.57h4.34a2.18,2.18,0,0,0,1.5-.57,1.94,1.94,0,0,0,.66-1.45v-28.2A1.93,1.93,0,0,0,834.8,132.92Z"/><rect class="cls-3" x="602.07" y="178.72" width="19.33" height="39.03" rx="9.66" ry="9.66" transform="translate(413.5 809.97) rotate(-90)"/><rect class="cls-3" x="602.07" y="79.27" width="19.33" height="39.03" rx="9.66" ry="9.66" transform="translate(512.96 710.52) rotate(-90)"/><rect class="cls-3" x="668.6" y="178.46" width="19.33" height="39.03" rx="9.66" ry="9.66" transform="translate(480.29 876.24) rotate(-90)"/><rect class="cls-3" x="668.6" y="79" width="19.33" height="39.03" rx="9.66" ry="9.66" transform="translate(579.75 776.78) rotate(-90)"/><rect class="cls-3" x="733.59" y="178.46" width="19.33" height="39.03" rx="9.66" ry="9.66" transform="translate(545.28 941.23) rotate(-90)"/><rect class="cls-3" x="733.59" y="79" width="19.33" height="39.03" rx="9.66" ry="9.66" transform="translate(644.74 841.77) rotate(-90)"/><rect class="cls-3" x="800.69" y="178.2" width="19.33" height="39.03" rx="9.66" ry="9.66" transform="translate(612.64 1008.07) rotate(-90)"/><rect class="cls-3" x="800.69" y="78.74" width="19.33" height="39.03" rx="9.66" ry="9.66" transform="translate(712.1 908.61) rotate(-90)"/><path class="cls-4" d="M403.18,34.16a12,12,0,0,0-9.79,5.1H340.14a12,12,0,0,0-11.93-10.73H265V20.67a12,12,0,0,0-12-12H75.71a12,12,0,0,0-12,12v.74H42.58A12,12,0,0,0,30.73,31.61H12a12,12,0,0,0-12,12V238.18a12,12,0,0,0,12,12H31a12,12,0,0,0,11.63,9.09H152.37A12,12,0,0,0,164,250.18h43.79c0-.17,0-.33,0-.5V244a62.18,62.18,0,0,1,62-62L334.5,182h29.79l.08-.16h26.92a47.14,47.14,0,0,0,47-47V34.19Z"/><rect class="cls-5" x="316.99" y="62.69" width="18.95" height="175.32" rx="9.48" ry="9.48" transform="translate(176.12 476.81) rotate(-90)"/><rect class="cls-5" x="316.99" y="13.67" width="18.95" height="175.32" rx="9.48" ry="9.48" transform="translate(225.14 427.79) rotate(-90)"/><rect class="cls-5" x="316.99" y="-34.84" width="18.95" height="175.32" rx="9.48" ry="9.48" transform="translate(273.65 379.29) rotate(-90)"/><polygon class="cls-6" points="367.13 63.51 341.12 26.2 322.05 22.8 348.05 60.11 367.13 63.51"/><polygon class="cls-7" points="645.91 68.56 633.14 60.38 637.22 79 649.99 87.18 645.91 68.56"/><rect class="cls-5" x="13.63" y="42.45" width="46.09" height="46.09" rx="12" ry="12"/><rect class="cls-5" x="88.79" y="42.45" width="46.09" height="46.09" rx="12" ry="12"/><rect class="cls-5" x="163.95" y="42.45" width="46.09" height="46.09" rx="12" ry="12"/><rect class="cls-5" x="13.63" y="114.91" width="46.09" height="46.09" rx="12" ry="12"/><rect class="cls-5" x="88.79" y="114.91" width="46.09" height="46.09" rx="12" ry="12"/><rect class="cls-5" x="163.95" y="114.91" width="46.09" height="46.09" rx="12" ry="12"/><rect class="cls-5" x="13.63" y="187.37" width="46.09" height="46.09" rx="12" ry="12"/><rect class="cls-5" x="88.79" y="187.37" width="46.09" height="46.09" rx="12" ry="12"/><rect class="cls-8" x="24.73" y="79.75" width="370.41" height="1.18"/><rect class="cls-8" x="24.73" y="84.03" width="370.41" height="1.18"/><rect class="cls-8" x="24.73" y="88.55" width="370.41" height="1.18"/><rect class="cls-8" x="24.73" y="92.83" width="370.41" height="1.18"/><rect class="cls-8" x="24.73" y="97.27" width="370.41" height="1.18"/><rect class="cls-8" x="24.73" y="101.55" width="370.41" height="1.18"/><rect class="cls-8" x="24.73" y="106.07" width="370.41" height="1.18"/><rect class="cls-8" x="24.73" y="110.35" width="370.41" height="1.18"/><rect class="cls-8" x="24.73" y="114.96" width="370.41" height="1.18"/><rect class="cls-8" x="24.73" y="119.25" width="370.41" height="1.18"/><rect class="cls-8" x="24.73" y="123.76" width="370.41" height="1.18"/><rect class="cls-8" x="24.73" y="128.05" width="370.41" height="1.18"/><rect class="cls-8" x="24.73" y="132.49" width="370.41" height="1.18"/><rect class="cls-8" x="24.73" y="136.77" width="370.41" height="1.18"/><rect class="cls-8" x="24.73" y="141.28" width="370.41" height="1.18"/><rect class="cls-8" x="24.73" y="145.57" width="370.41" height="1.18"/><rect class="cls-8" x="24.73" y="149.84" width="370.41" height="1.18"/><rect class="cls-8" x="24.73" y="154.13" width="370.41" height="1.18"/><rect class="cls-8" x="24.73" y="158.64" width="370.41" height="1.18"/><rect class="cls-8" x="24.73" y="162.93" width="370.41" height="1.18"/><rect class="cls-8" x="24.73" y="167.36" width="370.41" height="1.18"/><rect class="cls-8" x="24.73" y="171.65" width="370.41" height="1.18"/><rect class="cls-8" x="24.73" y="176.16" width="370.41" height="1.18"/><path class="cls-9" d="M649.45,166.84a3.45,3.45,0,0,0,3.29-2.46H776.49a3.46,3.46,0,1,0,0-2H652.74a3.45,3.45,0,1,0-3.29,4.46Z"/><path class="cls-9" d="M822.45,181.85,798.8,208.31h-18v.07l-10,11.24a3.49,3.49,0,1,0,1.49,1.33l9.51-10.64h17.9v0l.05,0,23.68-26.5h45.1v-2h-46Z"/><path class="cls-9" d="M813.6,128.24l-23.65-26.47h0v-.16H752.39L728.68,75.09h0v0H693.73a3.46,3.46,0,1,0,0,2h34l23.67,26.49v.05h37.48l23.79,26.63h69.74v-2Z"/><path class="cls-9" d="M682.38,98.82a3.45,3.45,0,0,0,3.29-2.46h34.75a3.46,3.46,0,1,0,0-2H685.67a3.45,3.45,0,1,0-3.29,4.46Z"/><path class="cls-9" d="M720.7,188.74h68.48l0,0L813,162.13h37.48v-2H812v.16h0l-23.65,26.47H719.81L698.11,211a3.42,3.42,0,0,0-1.69-.46,3.46,3.46,0,1,0,3.46,3.46,3.42,3.42,0,0,0-.38-1.55Z"/><path class="cls-9" d="M705.89,142.86a3.46,3.46,0,1,0-3.29-4.46h-128v2h128A3.45,3.45,0,0,0,705.89,142.86Z"/><path class="cls-9" d="M744.72,202.4a3.46,3.46,0,0,0-3.46,3.46,3.42,3.42,0,0,0,.45,1.68l-21,23.54a3.49,3.49,0,1,0,1.49,1.33l21-23.49a3.42,3.42,0,0,0,1.56.39,3.46,3.46,0,1,0,0-6.92Z"/><path class="cls-9" d="M681.61,184.63a3.45,3.45,0,0,0-3.29,2.46h-128v2h128a3.45,3.45,0,1,0,3.29-4.46Z"/><path class="cls-9" d="M607.63,94.18a3.43,3.43,0,0,0,1.45-.33l21.1,23.62,0,0v0h91.37L745.26,144H861.87v-2H746.16L722.5,115.53h0v0H631.1l-20.53-23a3.45,3.45,0,1,0-2.94,1.66Z"/><path class="cls-9" d="M504.77,77v0H413.38L392.85,54a3.48,3.48,0,1,0-1.49,1.33l21.1,23.62,0,0v0h91.37l23.7,26.53,1.49-1.33L504.78,77Z"/><path class="cls-9" d="M391.28,185.29a3.42,3.42,0,0,0-.38-1.55L412.11,160h68.51v-2h-69.4l-21.7,24.29a3.42,3.42,0,0,0-1.69-.46,3.46,3.46,0,1,0,3.46,3.46Z"/><path class="cls-9" d="M445.62,180,422,206.47H404v.07l-10,11.24a3.49,3.49,0,1,0,1.49,1.33l9.51-10.64h17.9v0l.05,0L446.55,182h45.1v-2h-46Z"/><path class="cls-9" d="M570.29,80a3.48,3.48,0,1,0,1.49-1.33l-21-23.54a3.42,3.42,0,0,0,.45-1.68,3.46,3.46,0,1,0-3.46,3.46,3.42,3.42,0,0,0,1.56-.39Z"/><path class="cls-9" d="M519.84,227.91V192.79h-2v35.12a3.46,3.46,0,1,0,2,0Z"/><path class="cls-9" d="M459.09,215.59h-18v.07l0,0-22,24.63a3.49,3.49,0,1,0,1.49,1.33l21.45-24h18v0l.05,0,24.26-27.15-1.49-1.33Z"/><path class="cls-9" d="M611.19,162.38H558.38v2h52.81a3.46,3.46,0,1,0,0-2Z"/><path class="cls-9" d="M417.77,119a3.46,3.46,0,1,0,0,2h34l23.68,26.5,1.49-1.33L452.72,119h0v0Z"/><polygon class="cls-10" points="618.46 129.28 618.9 133.71 629.85 142.68 629.4 138.24 618.46 129.28"/><polygon class="cls-11" points="834.26 223.41 827.91 217.06 820.89 211.44 832.75 196.61 840.97 203.27 847.69 209.98 834.26 223.41"/><polygon class="cls-12" points="647.69 209.93 643.1 203.05 637.93 196.59 651.41 185.81 657.26 193.18 662.05 200.35 647.69 209.93"/><path class="cls-13" d="M777.62,82.79c-1.28.93-2.58,1.84-3.9,2.72l-10.82-14.1c1.33-.86,2.63-1.77,3.92-2.69Z"/><path class="cls-14" d="M314,227.68c1.22-1,2.42-2,3.6-3.11l-11-14c-1.17,1.08-2.36,2.12-3.57,3.14Z"/><polygon class="cls-15" points="473.13 51.01 494.01 34.64 495.37 23.42 474.49 39.79 473.13 51.01"/><path class="cls-16" d="M673,133.31,678.92,115a133.73,133.73,0,0,0-15.12-3.15l-6,18.56A114,114,0,0,1,673,133.31Z"/><polygon class="cls-17" points="604.17 231.68 619.38 233.07 624.15 229.1 608.93 227.71 604.17 231.68"/><polygon class="cls-16" points="284.68 52.3 299.89 53.69 304.66 49.72 289.44 48.33 284.68 52.3"/><polygon class="cls-16" points="683.84 162.13 695.47 172.04 701.65 171.54 690.02 161.63 683.84 162.13"/><polygon class="cls-18" points="760.43 196.59 770.57 188.64 771.22 183.19 761.09 191.14 760.43 196.59"/><polygon class="cls-13" points="738.05 147.44 734.99 142.85 731.55 138.55 740.53 131.36 744.43 136.27 747.62 141.06 738.05 147.44"/><circle class="cls-9" cx="920.5" cy="147.52" r="78.62"/><path class="cls-12" d="M904.82,75.18c14.3-6.6,28.61,16,25.3,41.81a25.7,25.7,0,0,0-9.35-1.65h-.55a48.45,48.45,0,0,0-14.3-23.1C898.22,84.54,896.57,80.14,904.82,75.18Z"/><path class="cls-12" d="M858.07,107.64c6.05-14.85,31.91-9.35,47.86,11.55-2.75,1.1-5.5,3.3-8.25,5.5v.55q-9.9-6.6-26.4-6.6C859.72,118.64,855.86,117,858.07,107.64Z"/><path class="cls-12" d="M848.16,163.2c-6.6-14.3,16-28.61,41.81-25.3a26.65,26.65,0,0,0-1.65,9.9h0a48.45,48.45,0,0,0-23.1,14.3C857.51,170.35,853.11,171.45,848.16,163.2Z"/><path class="cls-12" d="M880.62,210c-14.85-5.5-9.35-31.91,11.55-47.86,1.1,2.75,3.3,5.5,5.5,8.25h.55c-4.4,7.15-6.6,15.4-6.6,26.4C891.62,208.31,890,212.16,880.62,210Z"/><path class="cls-12" d="M936.18,219.86c-14.3,6.6-28.61-16-25.3-41.81a26.65,26.65,0,0,0,9.9,1.65h0a48.45,48.45,0,0,0,14.3,23.1C943.33,210.51,944.43,214.91,936.18,219.86Z"/><path class="cls-12" d="M982.94,187.41c-5.5,15.4-31.91,9.35-47.86-11.55,2.75-1.1,5.5-3.3,8.25-5.5v-.55c7.15,4.4,15.4,6.6,26.4,6.6C981.29,176.4,985.14,178.05,982.94,187.41Z"/><path class="cls-12" d="M992.84,131.85c6.6,14.3-16,28.61-41.81,25.3a25.7,25.7,0,0,0,1.65-9.35v-.55a48.45,48.45,0,0,0,23.1-14.3C983.49,125.24,987.89,123.59,992.84,131.85Z"/><path class="cls-12" d="M960.38,85.09c15.4,6.05,9.35,31.91-11.55,47.86-1.1-2.75-3.3-5.5-5.5-8.25h-.55q6.6-9.9,6.6-26.4C949.38,86.74,951,82.89,960.38,85.09Z"/><path class="cls-2" d="M920.5,118.92a28.76,28.76,0,0,1,28.61,28.61c0,15.4-13.2,28.61-28.61,28.61a28.76,28.76,0,0,1-28.61-28.61A28.41,28.41,0,0,1,920.5,118.92Z"/><polygon class="cls-16" points="898.75 64.57 919.25 81.4 929.96 80.35 909.46 63.51 898.75 64.57"/><path class="cls-19" d="M862.61,76l-14.1-14.1a138.69,138.69,0,0,0-10,12.49L852.79,88.7A118.2,118.2,0,0,1,862.61,76Z"/><path class="cls-20" d="M854.45,121.72l-15.88-15.88c-1.38,1.93-2.81,3.81-4.28,5.66l15.78,15.78Q852.32,124.55,854.45,121.72Z"/><polygon class="cls-16" points="386.53 135.98 366.41 143.98 362.91 152.06 383.04 144.05 386.53 135.98"/><path class="cls-9" d="M40.86,107.83a2.34,2.34,0,0,1-.73-.5,2.17,2.17,0,0,1-.47-.71,2.28,2.28,0,0,1-.17-.89V87.51a2.28,2.28,0,0,1,.17-.89,2.24,2.24,0,0,1,.49-.73,2.06,2.06,0,0,1,.71-.49,2.44,2.44,0,0,1,2.57.49,2.37,2.37,0,0,1,.5.73,2.19,2.19,0,0,1,.18.89v12L55.53,86.1a2.29,2.29,0,0,1,1.82-.87,2.19,2.19,0,0,1,1.72.75,2.22,2.22,0,0,1,.44.76,2.67,2.67,0,0,1,.15.88v18.12a2.18,2.18,0,0,1-.18.89,2.37,2.37,0,0,1-.5.73,2.35,2.35,0,0,1-3.27,0,2.37,2.37,0,0,1-.5-.73,2.19,2.19,0,0,1-.18-.89V93.81L43.59,107.19l-.16.16a2.28,2.28,0,0,1-1.69.66A2.18,2.18,0,0,1,40.86,107.83Z"/><path class="cls-9" d="M65.69,107.86a2.19,2.19,0,0,1-.75-.51,2.3,2.3,0,0,1-.71-1.69V87.61a2.31,2.31,0,0,1,.48-1.44,2.27,2.27,0,0,1,1.24-.83.54.54,0,0,1,.26-.09l.3,0H78.06a2.29,2.29,0,0,1,.91.19,2.4,2.4,0,0,1,.76.5,2.49,2.49,0,0,1,.5.77,2.37,2.37,0,0,1,.18.91,2.13,2.13,0,0,1-.68,1.62,2.08,2.08,0,0,1-.75.48,2.56,2.56,0,0,1-.92.17H68.85v15.79a2.39,2.39,0,0,1-.63,1.69,2,2,0,0,1-.72.51,2.26,2.26,0,0,1-.9.18A2.36,2.36,0,0,1,65.69,107.86Z"/><path class="cls-9" d="M84.38,108a2.22,2.22,0,0,1-.74-.49,2.35,2.35,0,0,1-.5-.73,2.18,2.18,0,0,1-.18-.89V87.37a2.25,2.25,0,0,1,.18-.89,2.3,2.3,0,0,1,1.23-1.23,2.26,2.26,0,0,1,.9-.18h6.52a8.55,8.55,0,0,1,3.34.67,8.8,8.8,0,0,1,2.79,1.85,8.4,8.4,0,0,1,1.88,2.79,9.05,9.05,0,0,1,.66,3.5,8.37,8.37,0,0,1-.67,3.31,8.48,8.48,0,0,1-1.87,2.75,8.74,8.74,0,0,1-6.13,2.5h-4.2v3.51a2.18,2.18,0,0,1-.18.89,2.35,2.35,0,0,1-.5.73,2.22,2.22,0,0,1-1.63.66A2.36,2.36,0,0,1,84.38,108Zm7.48-10.23a3.72,3.72,0,0,0,1.51-.32,4,4,0,0,0,1.27-.88,4.27,4.27,0,0,0,.85-1.27,3.63,3.63,0,0,0,.31-1.48,4.38,4.38,0,0,0-.32-1.62,3.91,3.91,0,0,0-.86-1.36A4,4,0,0,0,93.35,90a3.66,3.66,0,0,0-1.49-.32H87.58v8.11Z"/><path class="cls-9" d="M105,107.83a2.27,2.27,0,0,1-.76-.5,2.21,2.21,0,0,1-.71-1.67V87.61a2.27,2.27,0,0,1,.19-.91,2.45,2.45,0,0,1,.52-.77,2.4,2.4,0,0,1,.76-.5,2.29,2.29,0,0,1,.91-.19,2.19,2.19,0,0,1,1.62.63,2.26,2.26,0,0,1,.63,1.62v6.79h5.06a6.51,6.51,0,0,1,2.64.55A6.66,6.66,0,0,1,118,96.35a7.44,7.44,0,0,1,1.47,2.25,6.77,6.77,0,0,1,.53,2.65,6.52,6.52,0,0,1-.53,2.62A6.92,6.92,0,0,1,118,106a6.72,6.72,0,0,1-2.19,1.46,6.8,6.8,0,0,1-2.64.52h-7.3A2.37,2.37,0,0,1,105,107.83Zm8.17-4.44a1.85,1.85,0,0,0,.83-.2,2.63,2.63,0,0,0,1.27-1.31,2,2,0,0,0,.2-.83,1.82,1.82,0,0,0-.19-.81,2.47,2.47,0,0,0-.52-.7,2.51,2.51,0,0,0-.74-.46,2.22,2.22,0,0,0-.84-.17h-5v4.48Zm11.4,4.4a2.37,2.37,0,0,1-.73-.5,2.22,2.22,0,0,1-.66-1.63v-18a2.37,2.37,0,0,1,.68-1.65,2.3,2.3,0,0,1,2.53-.5,2.53,2.53,0,0,1,.76.5,2.4,2.4,0,0,1,.51.76,2.25,2.25,0,0,1,.18.89v18a2.19,2.19,0,0,1-.18.89,2.45,2.45,0,0,1-.51.75,2.51,2.51,0,0,1-.77.5,2.38,2.38,0,0,1-.91.18A2.19,2.19,0,0,1,124.57,107.79Z"/><path class="cls-9" d="M141.82,107.83a2.34,2.34,0,0,1-.73-.5,2.17,2.17,0,0,1-.47-.71,2.28,2.28,0,0,1-.17-.89V87.51a2.28,2.28,0,0,1,.17-.89,2.24,2.24,0,0,1,.49-.73,2.06,2.06,0,0,1,.71-.49,2.44,2.44,0,0,1,2.57.49,2.37,2.37,0,0,1,.5.73,2.19,2.19,0,0,1,.18.89v12L156.49,86.1a2.29,2.29,0,0,1,1.82-.87A2.19,2.19,0,0,1,160,86a2.22,2.22,0,0,1,.44.76,2.67,2.67,0,0,1,.15.88v18.12a2.18,2.18,0,0,1-.18.89,2.37,2.37,0,0,1-.5.73,2.35,2.35,0,0,1-3.27,0,2.37,2.37,0,0,1-.5-.73,2.19,2.19,0,0,1-.18-.89V93.81l-11.45,13.38-.16.16a2.28,2.28,0,0,1-1.69.66A2.18,2.18,0,0,1,141.82,107.83Z"/><path class="cls-9" d="M174.72,107.83a2.27,2.27,0,0,1-.76-.5,2.21,2.21,0,0,1-.71-1.67V87.61a2.37,2.37,0,0,1,.7-1.69,2.4,2.4,0,0,1,.76-.51,2.24,2.24,0,0,1,.9-.18H190a2.34,2.34,0,0,1,.88.21,2.44,2.44,0,0,1,.74.5,2.52,2.52,0,0,1,.5.76,2.31,2.31,0,0,1,.18.9v18.05a2.27,2.27,0,0,1-.7,1.67,2.47,2.47,0,0,1-.77.5,2.37,2.37,0,0,1-.91.18,2.15,2.15,0,0,1-1.63-.68,2.33,2.33,0,0,1-.64-1.67V90h-9.73v15.65a2.21,2.21,0,0,1-1.35,2.16,2.18,2.18,0,0,1-.89.18A2.37,2.37,0,0,1,174.72,107.83Z"/><path class="cls-9" d="M198.3,108a2.22,2.22,0,0,1-.74-.49,2.35,2.35,0,0,1-.5-.73,2.18,2.18,0,0,1-.18-.89V87.37a2.25,2.25,0,0,1,.18-.89,2.3,2.3,0,0,1,1.23-1.23,2.26,2.26,0,0,1,.9-.18h6.52a8.55,8.55,0,0,1,3.34.67,8.8,8.8,0,0,1,2.79,1.85,8.4,8.4,0,0,1,1.88,2.79,9.05,9.05,0,0,1,.66,3.5,8.37,8.37,0,0,1-.67,3.31,8.48,8.48,0,0,1-1.87,2.75,8.74,8.74,0,0,1-6.13,2.5h-4.2v3.51a2.18,2.18,0,0,1-.18.89,2.35,2.35,0,0,1-.5.73,2.22,2.22,0,0,1-1.63.66A2.36,2.36,0,0,1,198.3,108Zm7.48-10.23a3.72,3.72,0,0,0,1.51-.32,4,4,0,0,0,1.27-.88,4.27,4.27,0,0,0,.85-1.27,3.63,3.63,0,0,0,.31-1.48,4.38,4.38,0,0,0-.32-1.62,3.91,3.91,0,0,0-.86-1.36,4,4,0,0,0-1.27-.88,3.66,3.66,0,0,0-1.49-.32H201.5v8.11Z"/><path class="cls-9" d="M222.63,107.56a8.57,8.57,0,0,1-2.78-1.81,8.31,8.31,0,0,1-1.89-2.81,9.21,9.21,0,0,1-.68-3.56V93.85a9.21,9.21,0,0,1,.68-3.56,8.31,8.31,0,0,1,4.67-4.63,9,9,0,0,1,6.63,0,8.33,8.33,0,0,1,4.67,4.63,9.21,9.21,0,0,1,.68,3.56v5.53a9.21,9.21,0,0,1-.68,3.56,8.31,8.31,0,0,1-1.89,2.81,8.71,8.71,0,0,1-6.08,2.45A8.72,8.72,0,0,1,222.63,107.56Zm4.83-4.27a3.43,3.43,0,0,0,1.25-.75,4,4,0,0,0,1.23-3.13V93.81a4.79,4.79,0,0,0-.32-1.82,3.62,3.62,0,0,0-2.16-2.06,4.65,4.65,0,0,0-1.51-.24,4.6,4.6,0,0,0-1.52.25,3.66,3.66,0,0,0-1.26.74,3.43,3.43,0,0,0-.91,1.31,4.78,4.78,0,0,0-.32,1.82v5.59a4,4,0,0,0,1.23,3.13,3.65,3.65,0,0,0,1.26.74,4.57,4.57,0,0,0,1.52.25A4.65,4.65,0,0,0,227.46,103.28Z"/><path class="cls-9" d="M240.47,107.86a2.19,2.19,0,0,1-.75-.51,2.3,2.3,0,0,1-.71-1.69V87.61a2.31,2.31,0,0,1,.48-1.44,2.27,2.27,0,0,1,1.24-.83.54.54,0,0,1,.26-.09l.3,0h11.55a2.29,2.29,0,0,1,.91.19,2.4,2.4,0,0,1,.76.5,2.49,2.49,0,0,1,.5.77,2.37,2.37,0,0,1,.18.91,2.13,2.13,0,0,1-.68,1.62,2.08,2.08,0,0,1-.75.48,2.56,2.56,0,0,1-.92.17h-9.21v15.79a2.39,2.39,0,0,1-.63,1.69,2,2,0,0,1-.72.51,2.26,2.26,0,0,1-.9.18A2.36,2.36,0,0,1,240.47,107.86Z"/><path class="cls-9" d="M259.16,108a2.22,2.22,0,0,1-.74-.49,2.35,2.35,0,0,1-.5-.73,2.18,2.18,0,0,1-.18-.89V87.37a2.25,2.25,0,0,1,.18-.89,2.3,2.3,0,0,1,1.23-1.23,2.26,2.26,0,0,1,.9-.18h6.52a8.55,8.55,0,0,1,3.34.67,8.8,8.8,0,0,1,2.79,1.85,8.4,8.4,0,0,1,1.88,2.79,9.05,9.05,0,0,1,.66,3.5,8.37,8.37,0,0,1-.67,3.31,8.48,8.48,0,0,1-1.87,2.75,8.74,8.74,0,0,1-6.13,2.5h-4.2v3.51a2.18,2.18,0,0,1-.18.89,2.35,2.35,0,0,1-.5.73,2.22,2.22,0,0,1-1.63.66A2.36,2.36,0,0,1,259.16,108Zm7.48-10.23a3.72,3.72,0,0,0,1.51-.32,4,4,0,0,0,1.27-.88,4.27,4.27,0,0,0,.85-1.27,3.63,3.63,0,0,0,.31-1.48,4.38,4.38,0,0,0-.32-1.62,3.91,3.91,0,0,0-.86-1.36,4,4,0,0,0-1.27-.88,3.66,3.66,0,0,0-1.49-.32h-4.27v8.11Z"/><path class="cls-9" d="M278.83,107.5a2.2,2.2,0,0,1-.69-1.67V94.14a11.25,11.25,0,0,1,.56-3.63,8.32,8.32,0,0,1,1.64-2.88,7.4,7.4,0,0,1,2.66-1.9,8.85,8.85,0,0,1,3.51-.67,9.3,9.3,0,0,1,3.55.65,7.49,7.49,0,0,1,2.72,1.89,8.24,8.24,0,0,1,1.7,3,12.07,12.07,0,0,1,.59,3.88v11.4a2.27,2.27,0,0,1-.7,1.67,2.47,2.47,0,0,1-.77.5,2.43,2.43,0,0,1-1.85,0,2.28,2.28,0,0,1-.75-.5,2.21,2.21,0,0,1-.71-1.67v-3.63h-7.4v3.63a2.2,2.2,0,0,1-.69,1.67,2.47,2.47,0,0,1-.77.5,2.41,2.41,0,0,1-2.6-.5Zm11.47-10v-3a5.48,5.48,0,0,0-.94-3.43,3.26,3.26,0,0,0-2.75-1.21,3.43,3.43,0,0,0-2.77,1.12,5.42,5.42,0,0,0-.95,3.54v3Z"/><path class="cls-9" d="M299.87,107.33a2.2,2.2,0,0,1-.69-1.67V92.18a7.15,7.15,0,0,1,2.08-5.06,7.25,7.25,0,0,1,2.28-1.55,7,7,0,0,1,2.77-.56,6.86,6.86,0,0,1,2.6.5,7.12,7.12,0,0,1,2.2,1.4,7.16,7.16,0,0,1,2.19-1.4,6.8,6.8,0,0,1,2.59-.5,7.08,7.08,0,0,1,2.79.56,7.19,7.19,0,0,1,3.85,3.85,7,7,0,0,1,.56,2.75v13.48a2.27,2.27,0,0,1-.69,1.67,2.47,2.47,0,0,1-.77.5,2.36,2.36,0,0,1-.91.18,2.39,2.39,0,0,1-.94-.18,2.29,2.29,0,0,1-.75-.5,2.21,2.21,0,0,1-.71-1.67V92.35a2.21,2.21,0,0,0-.2-.91,2.59,2.59,0,0,0-.53-.77,2.32,2.32,0,0,0-.78-.51,2.48,2.48,0,0,0-.94-.18,2.17,2.17,0,0,0-1.65.68,2.47,2.47,0,0,0-.69,1.67v13.31a2.29,2.29,0,0,1-.7,1.68,2.37,2.37,0,0,1-1.69.7,2.37,2.37,0,0,1-2.38-2.38V92.39a2.49,2.49,0,0,0-.68-1.72,2.34,2.34,0,0,0-.77-.51,2.45,2.45,0,0,0-.95-.18,2.32,2.32,0,0,0-1.7.7,2.45,2.45,0,0,0-.52.77,2.28,2.28,0,0,0-.19.91v13.31a2.2,2.2,0,0,1-.69,1.67,2.47,2.47,0,0,1-.77.5,2.41,2.41,0,0,1-2.6-.5Z"/><path class="cls-9" d="M327.7,107.33a2.2,2.2,0,0,1-.69-1.67V92.18a7.15,7.15,0,0,1,2.08-5.06,7.25,7.25,0,0,1,2.28-1.55,7,7,0,0,1,2.77-.56,6.86,6.86,0,0,1,2.6.5,7.12,7.12,0,0,1,2.2,1.4,7.16,7.16,0,0,1,2.19-1.4,6.8,6.8,0,0,1,2.59-.5,7.08,7.08,0,0,1,2.79.56,7.19,7.19,0,0,1,3.85,3.85,7,7,0,0,1,.56,2.75v13.48a2.27,2.27,0,0,1-.69,1.67,2.47,2.47,0,0,1-.77.5,2.36,2.36,0,0,1-.91.18,2.39,2.39,0,0,1-.94-.18,2.29,2.29,0,0,1-.75-.5,2.21,2.21,0,0,1-.71-1.67V92.35a2.21,2.21,0,0,0-.2-.91,2.59,2.59,0,0,0-.53-.77,2.32,2.32,0,0,0-.78-.51,2.48,2.48,0,0,0-.94-.18,2.17,2.17,0,0,0-1.65.68,2.47,2.47,0,0,0-.69,1.67v13.31a2.29,2.29,0,0,1-.7,1.68,2.37,2.37,0,0,1-1.69.7,2.37,2.37,0,0,1-2.38-2.38V92.39a2.49,2.49,0,0,0-.68-1.72,2.34,2.34,0,0,0-.77-.51,2.45,2.45,0,0,0-.95-.18,2.32,2.32,0,0,0-1.7.7,2.45,2.45,0,0,0-.52.77,2.28,2.28,0,0,0-.19.91v13.31a2.2,2.2,0,0,1-.69,1.67,2.47,2.47,0,0,1-.77.5,2.41,2.41,0,0,1-2.6-.5Z"/><path class="cls-9" d="M356.66,107.83a2.27,2.27,0,0,1-.76-.5,2.21,2.21,0,0,1-.71-1.67V87.61a2.27,2.27,0,0,1,.19-.91,2.45,2.45,0,0,1,.52-.77,2.4,2.4,0,0,1,.76-.5,2.29,2.29,0,0,1,.91-.19,2.19,2.19,0,0,1,1.62.63,2.26,2.26,0,0,1,.63,1.62v6.79h5.06a6.51,6.51,0,0,1,2.64.55,6.66,6.66,0,0,1,2.19,1.54,7.44,7.44,0,0,1,1.47,2.25,6.77,6.77,0,0,1,.53,2.65,6.52,6.52,0,0,1-.53,2.62A6.92,6.92,0,0,1,369.7,106a6.72,6.72,0,0,1-2.19,1.46,6.8,6.8,0,0,1-2.64.52h-7.3A2.37,2.37,0,0,1,356.66,107.83Zm8.17-4.44a1.85,1.85,0,0,0,.83-.2,2.63,2.63,0,0,0,1.27-1.31,2,2,0,0,0,.2-.83,1.82,1.82,0,0,0-.19-.81,2.47,2.47,0,0,0-.52-.7,2.51,2.51,0,0,0-.74-.46,2.22,2.22,0,0,0-.84-.17h-5v4.48Zm11.4,4.4a2.37,2.37,0,0,1-.73-.5,2.22,2.22,0,0,1-.66-1.63v-18a2.37,2.37,0,0,1,.68-1.65,2.3,2.3,0,0,1,2.53-.5,2.53,2.53,0,0,1,.76.5,2.4,2.4,0,0,1,.51.76,2.25,2.25,0,0,1,.18.89v18a2.19,2.19,0,0,1-.18.89,2.45,2.45,0,0,1-.51.75,2.51,2.51,0,0,1-.77.5,2.38,2.38,0,0,1-.91.18A2.19,2.19,0,0,1,376.23,107.79Z"/><path class="cls-9" d="M39.35,171.22a2.29,2.29,0,0,1-.75-.5,2.16,2.16,0,0,1-.69-1.63v-5.35a2.2,2.2,0,0,1,.68-1.56,2.23,2.23,0,0,1,1.6-.66l4.92-16.44a1.74,1.74,0,0,1,.29-.68,2.23,2.23,0,0,1,.53-.54,2.62,2.62,0,0,1,1.46-.47h8.1a2.14,2.14,0,0,1,.87.18,2.44,2.44,0,0,1,.75.51,2.35,2.35,0,0,1,.5.73,2.19,2.19,0,0,1,.18.89v15.81H58a2.17,2.17,0,0,1,1,.23,2.12,2.12,0,0,1,.76.63l.1.16a1.8,1.8,0,0,1,.31.61,2.52,2.52,0,0,1,.09.68v5.26A2.31,2.31,0,0,1,58,171.4a2.27,2.27,0,0,1-1.67-.68,2.23,2.23,0,0,1-.68-1.63v-2.92H42.57v2.92a2.31,2.31,0,0,1-2.31,2.31A2.3,2.3,0,0,1,39.35,171.22Zm13.74-9.7V148.07h-4l-4,13.45Z"/><path class="cls-9" d="M62.27,165.42a2.28,2.28,0,0,1-.48-.76,2.4,2.4,0,0,1-.17-.88,2.46,2.46,0,0,1,.21-1l7.66-18a2,2,0,0,1,.64-.84,2.43,2.43,0,0,1,1-.46,1.72,1.72,0,0,1,.43-.07h.23a2.18,2.18,0,0,1,1.12.32,2.22,2.22,0,0,1,.84.86l.1.19,7.59,18a2.48,2.48,0,0,1,.19,1,2.38,2.38,0,0,1-.63,1.62,2.25,2.25,0,0,1-1.72.75,2.39,2.39,0,0,1-1.3-.37,2.31,2.31,0,0,1-.89-1l-5.44-12.84-5.47,12.84a2.48,2.48,0,0,1-.9,1,2.32,2.32,0,0,1-1.29.38A2.29,2.29,0,0,1,62.27,165.42Z"/><path class="cls-9" d="M85,166a2.45,2.45,0,0,1-.77-.52,2.59,2.59,0,0,1-.53-.77,2.16,2.16,0,0,1-.2-.89,2.26,2.26,0,0,1,.71-1.67L87,159.41a8.59,8.59,0,0,1-3-3.09A8.33,8.33,0,0,1,82.79,152a8.61,8.61,0,0,1,.67-3.35,8.43,8.43,0,0,1,1.87-2.78,8.76,8.76,0,0,1,2.8-1.86,8.63,8.63,0,0,1,3.35-.66H98a2.41,2.41,0,0,1,1.69.7,2.34,2.34,0,0,1,.51.77,2.37,2.37,0,0,1,.18.91v18.05a2.27,2.27,0,0,1-.69,1.67,2.48,2.48,0,0,1-.77.5A2.44,2.44,0,0,1,97,166a2.29,2.29,0,0,1-.75-.5,2.21,2.21,0,0,1-.71-1.67v-3.16H92.48l-4.93,4.83A2.29,2.29,0,0,1,85,166Zm10.59-10.09v-7.71H91.4a3.53,3.53,0,0,0-1.45.31,4.07,4.07,0,0,0-1.24.85,4,4,0,0,0-.86,1.25,3.59,3.59,0,0,0-.3,1.46,3.48,3.48,0,0,0,.31,1.44,4.16,4.16,0,0,0,2.08,2.08,3.52,3.52,0,0,0,1.46.31Z"/><path class="cls-9" d="M116.13,165.2A4.24,4.24,0,0,1,114.8,162V139.51a21.65,21.65,0,0,1,1.09-7A16,16,0,0,1,119,127a14.2,14.2,0,0,1,5.11-3.66A17,17,0,0,1,130.9,122a17.87,17.87,0,0,1,6.83,1.25,14.4,14.4,0,0,1,5.23,3.63,15.84,15.84,0,0,1,3.27,5.7,23.21,23.21,0,0,1,1.14,7.47V162A4.38,4.38,0,0,1,146,165.2a4.81,4.81,0,0,1-1.49,1,4.69,4.69,0,0,1-3.56,0,4.45,4.45,0,0,1-1.44-1,4.25,4.25,0,0,1-1.37-3.21v-7H124v7a4.24,4.24,0,0,1-1.34,3.21,4.81,4.81,0,0,1-1.49,1,4.64,4.64,0,0,1-5-1Zm22.05-19.31v-5.81a10.56,10.56,0,0,0-1.8-6.6,6.28,6.28,0,0,0-5.28-2.32,6.59,6.59,0,0,0-5.33,2.15q-1.82,2.16-1.82,6.8v5.78Z"/><path class="cls-9" d="M158.72,166.15a4.41,4.41,0,0,1-1.45-1,4.25,4.25,0,0,1-1.37-3.21V139.51a21.65,21.65,0,0,1,1.09-7,16,16,0,0,1,3.16-5.55,14.21,14.21,0,0,1,5.11-3.66A17,17,0,0,1,172,122a18,18,0,0,1,6.85,1.25,14.36,14.36,0,0,1,5.25,3.63,15.65,15.65,0,0,1,3.26,5.7,23.53,23.53,0,0,1,1.12,7.47V162a4.24,4.24,0,0,1-1.34,3.21,4.81,4.81,0,0,1-1.49,1,4.64,4.64,0,0,1-5-1,4.24,4.24,0,0,1-1.34-3.21V140.08a10.43,10.43,0,0,0-1.84-6.58,6.28,6.28,0,0,0-5.25-2.34,6.57,6.57,0,0,0-5.36,2.15q-1.79,2.16-1.79,6.8V162a4.38,4.38,0,0,1-1.34,3.21,4.76,4.76,0,0,1-1.5,1,4.7,4.7,0,0,1-1.77.35A4.58,4.58,0,0,1,158.72,166.15Z"/><path class="cls-9" d="M200.65,165.84a4.27,4.27,0,0,1-1.42-.94,4.55,4.55,0,0,1-1-1.4,4.2,4.2,0,0,1-.35-1.7V126.41a4.21,4.21,0,0,1,.35-1.7,4.53,4.53,0,0,1,1-1.4,4.25,4.25,0,0,1,1.42-.94,4.51,4.51,0,0,1,1.72-.33H214.2a17.54,17.54,0,0,1,6.37,1.15,15.43,15.43,0,0,1,8.8,8.62,17.73,17.73,0,0,1,1.27,6.8v11a17.73,17.73,0,0,1-1.27,6.8,15.24,15.24,0,0,1-3.58,5.3,15.57,15.57,0,0,1-5.23,3.34,17.33,17.33,0,0,1-6.37,1.17H202.37A4.51,4.51,0,0,1,200.65,165.84Zm13.55-8.55a7.51,7.51,0,0,0,5.21-1.77,7.43,7.43,0,0,0,2.27-5.88V138.54a7.43,7.43,0,0,0-2.27-5.88,7.61,7.61,0,0,0-5.21-1.7h-7.38v26.33Z"/><path class="cls-9" d="M239.45,165a4.52,4.52,0,0,1-1-1.4,4.2,4.2,0,0,1-.35-1.7V126.48a4.32,4.32,0,0,1,.35-1.72,4.47,4.47,0,0,1,1-1.42,4.28,4.28,0,0,1,3.14-1.3h12.53a16.68,16.68,0,0,1,6.46,1.27,16.37,16.37,0,0,1,8.92,8.92,17.46,17.46,0,0,1,1.25,6.72,16.18,16.18,0,0,1-2.31,8.42,15.9,15.9,0,0,1-6.11,5.91l5.08,5.35a4.49,4.49,0,0,1,1.27,3.14,4.24,4.24,0,0,1-.35,1.69,4.6,4.6,0,0,1-1,1.45,4.3,4.3,0,0,1-3.14,1.34,3.86,3.86,0,0,1-3-1.3L253,155.41h-6v6.45a4.2,4.2,0,0,1-.35,1.7,4.52,4.52,0,0,1-1,1.4,4.52,4.52,0,0,1-6.28,0Zm15.8-18.44a7.14,7.14,0,0,0,2.91-.62,7.66,7.66,0,0,0,2.44-1.69,8.43,8.43,0,0,0,1.67-2.46,6.87,6.87,0,0,0,.6-2.82,8.44,8.44,0,0,0-.62-3.11,7.55,7.55,0,0,0-1.65-2.61,7.83,7.83,0,0,0-2.47-1.67,7.24,7.24,0,0,0-2.87-.6H247v15.57Z"/><path class="cls-9" d="M288.34,165.3a16.5,16.5,0,0,1-5.35-3.47,16,16,0,0,1-3.64-5.41,17.7,17.7,0,0,1-1.3-6.85V138.94a17.7,17.7,0,0,1,1.3-6.85,16,16,0,0,1,9-8.9,17.26,17.26,0,0,1,12.75,0,16,16,0,0,1,9,8.9,17.7,17.7,0,0,1,1.3,6.85v10.63a17.7,17.7,0,0,1-1.3,6.85,16,16,0,0,1-3.64,5.41,16.75,16.75,0,0,1-11.69,4.71A16.76,16.76,0,0,1,288.34,165.3Zm9.29-8.22a6.59,6.59,0,0,0,2.41-1.44,7.68,7.68,0,0,0,2.37-6V138.87a9.21,9.21,0,0,0-.62-3.49,7,7,0,0,0-4.16-4,8.94,8.94,0,0,0-2.91-.47,8.81,8.81,0,0,0-2.92.48,7,7,0,0,0-2.42,1.42,6.64,6.64,0,0,0-1.75,2.52,9.2,9.2,0,0,0-.62,3.49v10.76a7.68,7.68,0,0,0,2.37,6,7,7,0,0,0,2.42,1.42,8.79,8.79,0,0,0,2.92.48A8.92,8.92,0,0,0,297.62,157.08Z"/><path class="cls-9" d="M322.67,166.2a4.25,4.25,0,0,1-1.42-.94,4.52,4.52,0,0,1-1-1.4,4.2,4.2,0,0,1-.35-1.7V126.34a4.28,4.28,0,0,1,1.3-3.14,4.61,4.61,0,0,1,3.14-1.24,4.4,4.4,0,0,1,3.14,1.24,4.28,4.28,0,0,1,1.3,3.14v35.82a4.2,4.2,0,0,1-.35,1.7,4.52,4.52,0,0,1-1,1.4,4.26,4.26,0,0,1-3.14,1.27A4.51,4.51,0,0,1,322.67,166.2Z"/><path class="cls-9" d="M340.44,165.84a4.27,4.27,0,0,1-1.42-.94,4.55,4.55,0,0,1-1-1.4,4.2,4.2,0,0,1-.35-1.7V126.41a4.21,4.21,0,0,1,.35-1.7,4.53,4.53,0,0,1,1-1.4,4.25,4.25,0,0,1,1.42-.94,4.51,4.51,0,0,1,1.72-.33H354a17.54,17.54,0,0,1,6.37,1.15,15.43,15.43,0,0,1,8.8,8.62,17.73,17.73,0,0,1,1.27,6.8v11a17.73,17.73,0,0,1-1.27,6.8,15.24,15.24,0,0,1-3.58,5.3,15.57,15.57,0,0,1-5.23,3.34,17.33,17.33,0,0,1-6.37,1.17H342.16A4.51,4.51,0,0,1,340.44,165.84ZM354,157.28a7.51,7.51,0,0,0,5.21-1.77,7.43,7.43,0,0,0,2.27-5.88V138.54a7.43,7.43,0,0,0-2.27-5.88A7.61,7.61,0,0,0,354,131H346.6v26.33Z"/><path class="cls-2" d="M577.15,137.18A18.08,18.08,0,0,0,564.61,120V100.41a15.26,15.26,0,0,0-30-4.06,26,26,0,0,0-30.71,3.76,15.31,15.31,0,0,0-15.25-15h0a15.31,15.31,0,0,0-15.27,15.27v8a30.72,30.72,0,0,0-9.93,37.08,54.53,54.53,0,0,0,4.62,35.86,18.05,18.05,0,0,0,23.89,24,54.47,54.47,0,0,0,62-8.68A10.64,10.64,0,0,0,565.67,181a54.27,54.27,0,0,0,5.65-24.18,55,55,0,0,0-.35-6.08A18,18,0,0,0,577.15,137.18Z"/><path class="cls-9" d="M539.36,167.91H496.52a5.36,5.36,0,0,0,0,10.71h42.84a5.36,5.36,0,0,0,0-10.71Z"/><polygon class="cls-17" points="555.36 105.55 568.56 110.64 587.28 102.34 574.08 97.25 555.36 105.55"/><polygon class="cls-16" points="469.71 88.56 481.77 100.61 488.68 100.61 476.63 88.56 469.71 88.56"/><polygon class="cls-21" points="556.26 203.56 541.51 212.12 539.65 219.14 554.39 210.58 556.26 203.56"/><path class="cls-22" d="M464.75,196l5.69,5.69a55.09,55.09,0,0,0,4.23-3.73L469,192.3A47.06,47.06,0,0,1,464.75,196Z"/><path class="cls-23" d="M462.29,176.19l-6.94-6.94q-1.49.59-2.95,1.26l6.77,6.77Q460.71,176.69,462.29,176.19Z"/><path class="cls-24" d="M550.62,155.41a3.16,3.16,0,0,1-4.56,2.84l-20.11-10a3.16,3.16,0,0,1,0-5.65l20-10.11a3.16,3.16,0,0,1,4.58,2.81Z"/><path class="cls-24" d="M485.26,155.41a3.16,3.16,0,0,0,4.56,2.84l20.11-10a3.16,3.16,0,0,0,0-5.65l-20-10.11a3.16,3.16,0,0,0-4.58,2.81Z"/><polygon class="cls-13" points="911.28 217.89 892.98 222.99 885.14 236.89 903.44 231.79 911.28 217.89"/><polygon class="cls-6" points="971.78 215.33 973.51 197.87 964.45 205.29 962.72 222.75 971.78 215.33"/><polygon class="cls-14" points="937.17 177.63 929.4 164.61 917.05 161.49 924.82 174.51 937.17 177.63"/><polygon class="cls-12" points="985.87 113.88 983.55 106.92 982.52 99.69 995.78 97.8 996.65 103.85 998.58 109.64 985.87 113.88"/><polygon class="cls-20" points="437.06 206.37 429.3 199.96 420.87 200.75 428.63 207.17 437.06 206.37"/><rect class="cls-1" x="71.79" y="217.98" width="27.19" height="28.87"/><path class="cls-2" d="M289.15,231.37c-6.49-1.94-18.68-5.69-25-7.19h0c-6.81-1.38-16,2.12-23.18,9.72-9.32,9.94-11.72,22.84-5.36,28.93,6.12,5.77,14.82-2.54,27.24-5.61,2.91-.72,9.42,1.15,11.5,3.3,8.83,9.17,11.87,20.85,20.12,19.21,8.67-1.69,13.51-14,10.8-27.36C303,241.25,296.17,233.46,289.15,231.37ZM260.7,245.48l-3.1-.89-.89,3.1A3,3,0,0,1,251,246l.89-3.1-3.1-.89a3,3,0,0,1,1.65-5.75l3.1.89.89-3.1a3,3,0,0,1,5.75,1.65l-.89,3.1,3.1.89a3,3,0,0,1-1.65,5.75Zm21.64,6.21a3,3,0,1,1,3.7-2A2.89,2.89,0,0,1,282.34,251.69Zm4.34,7.71a3,3,0,1,1,3.7-2A3,3,0,0,1,286.67,259.4Zm3.45-12a3,3,0,1,1,3.7-2A3,3,0,0,1,290.13,247.37Zm4.24,7.77a3,3,0,1,1,3.7-2A2.89,2.89,0,0,1,294.37,255.14Z"/><path class="cls-2" d="M195.66,18.79H184.08V7.21a7.21,7.21,0,0,0-14.42,0V18.79H158.08a7.21,7.21,0,1,0,0,14.42h11.58V44.79a7.21,7.21,0,1,0,14.42,0V33.21h11.58a7.21,7.21,0,1,0,0-14.42Z"/><path class="cls-2" d="M185.45,230.46H173.86V218.87a7.21,7.21,0,0,0-14.42,0v11.58H147.86a7.21,7.21,0,1,0,0,14.42h11.58v11.58a7.21,7.21,0,1,0,14.42,0V244.87h11.58a7.21,7.21,0,1,0,0-14.42Z"/><path class="cls-2" d="M42.77,54.4H37V48.6a3.6,3.6,0,0,0-7.21,0V54.4H24a3.6,3.6,0,1,0,0,7.21h5.79V67.4a3.6,3.6,0,1,0,7.21,0V61.6h5.79a3.6,3.6,0,1,0,0-7.21Z"/><path class="cls-2" d="M117.55,258.91l-16.78-56.72c-1.32-4.45-5.4-7.19-9.1-6.09L61,205.17c-3.7,1.09-5.63,5.61-4.32,10.06L73.44,272c1.32,4.45,5.4,7.19,9.1,6.09L113.23,269C116.93,267.87,118.87,263.36,117.55,258.91ZM82.31,243.49a2.48,2.48,0,0,1-4.06-1.12l-4.42-15.13a2.48,2.48,0,0,1,2.82-3.13L94,227.25a2.48,2.48,0,0,1,1.24,4.26Zm16.79,25-5.21,1.54a1.53,1.53,0,0,1-1.78-1l-.32-1.1a1.53,1.53,0,0,1,1-1.78L98,264.7a1.35,1.35,0,0,1,1.78,1l.32,1.1A1.35,1.35,0,0,1,99.1,268.54Z"/><polygon class="cls-11" points="231.98 215.07 225.63 208.72 218.61 203.11 230.47 188.28 238.69 194.94 245.41 201.65 231.98 215.07"/><polygon class="cls-12" points="344.85 189.23 338.41 186.87 331.77 185.06 335.53 171.23 343.06 173.31 349.79 175.78 344.85 189.23"/><polygon class="cls-13" points="316.83 142.01 313.77 137.43 310.32 133.12 319.31 125.94 323.21 130.85 326.4 135.63 316.83 142.01"/><polygon class="cls-7" points="130.76 204.81 119.84 209.49 133.7 215.04 144.63 210.36 130.76 204.81"/><path class="cls-20" d="M602.87,201.66,583.2,212.5q2.2,2.79,4.24,5.69L607,207.42Q605,204.5,602.87,201.66Z"/><path class="cls-12" d="M190.47,189.92l4.61,7.69a62.38,62.38,0,0,0,5.74-4.35l-4.68-7.81A53.16,53.16,0,0,1,190.47,189.92Z"/><polygon class="cls-17" points="488.41 237.49 478.97 225.48 472.81 224.74 482.26 236.75 488.41 237.49"/><polygon class="cls-6" points="361.63 205.57 355.71 239.69 364.2 251.75 370.12 217.64 361.63 205.57"/><polygon class="cls-12" points="530.32 82 540.46 74.05 541.11 68.6 530.98 76.55 530.32 82"/><polygon class="cls-11" points="114.31 46.95 111.7 44.35 108.82 42.04 113.69 35.95 117.07 38.69 119.82 41.44 114.31 46.95"/><path class="cls-19" d="M217.76,57.93l-8.42-8.42a82.81,82.81,0,0,0-6,7.46l8.54,8.54A70.57,70.57,0,0,1,217.76,57.93Z"/><polygon class="cls-17" points="249.9 68.2 258.57 67.22 259.4 65.06 250.73 66.04 249.9 68.2"/><path class="cls-2" d="M331.74,62.14h-4v-4a2.5,2.5,0,0,0-5,0v4h-4a2.5,2.5,0,1,0,0,5h4v4a2.5,2.5,0,1,0,5,0v-4h4a2.5,2.5,0,0,0,0-5Z"/><path class="cls-2" d="M70,186.25h-2.9v-2.9a1.8,1.8,0,0,0-3.6,0v2.9h-2.9a1.8,1.8,0,1,0,0,3.6h2.9v2.9a1.8,1.8,0,1,0,3.6,0v-2.9H70a1.8,1.8,0,1,0,0-3.6Z"/><path class="cls-1" d="M934.14,150.39,927.4,146l4.35-6.74a5,5,0,0,0-8.38-5.41L919,140.62l-6.74-4.35a5,5,0,1,0-5.41,8.38L913.6,149l-4.35,6.74a5,5,0,1,0,8.38,5.41l4.35-6.74,6.74,4.35a5,5,0,0,0,5.41-8.38Z"/><path class="cls-9" d="M375.53,131.29a.92.92,0,0,1-.26-.68v-6.86H373.4a1,1,0,0,1-1-1,1,1,0,0,1,.07-.37,1,1,0,0,1,.89-.59H379a1,1,0,0,1,.38.08,1,1,0,0,1,.31.21,1.09,1.09,0,0,1,.21.32,1,1,0,0,1,.08.38.93.93,0,0,1-.08.37,1,1,0,0,1-.21.31.93.93,0,0,1-.31.21,1,1,0,0,1-.38.07h-1.82v6.86a.93.93,0,0,1-.08.37,1,1,0,0,1-.21.31,1,1,0,0,1-.32.21,1,1,0,0,1-.38.07A.88.88,0,0,1,375.53,131.29Z"/><path class="cls-9" d="M381.29,131.19a.92.92,0,0,1-.29-.7V124.8a3,3,0,0,1,.88-2.13,3,3,0,0,1,1-.65,3,3,0,0,1,2.26,0,3,3,0,0,1,.93.59A3,3,0,0,1,387,122a2.87,2.87,0,0,1,1.09-.21,3,3,0,0,1,1.18.23,3,3,0,0,1,1.62,1.62,3,3,0,0,1,.23,1.16v5.68a1,1,0,0,1-.29.7,1.06,1.06,0,0,1-.33.21,1,1,0,0,1-.78,0,1,1,0,0,1-.32-.21.93.93,0,0,1-.3-.7v-5.61a.93.93,0,0,0-.08-.38,1.09,1.09,0,0,0-.22-.33,1,1,0,0,0-.33-.22,1,1,0,0,0-.39-.08.92.92,0,0,0-.7.29,1,1,0,0,0-.29.7v5.61a1,1,0,0,1-.29.71,1,1,0,0,1-.71.29,1,1,0,0,1-1-1v-5.58a1.06,1.06,0,0,0-.29-.72,1,1,0,0,0-.33-.22,1,1,0,0,0-.4-.08,1,1,0,0,0-.72.29,1,1,0,0,0-.22.33,1,1,0,0,0-.08.38v5.61a.93.93,0,0,1-.29.7,1,1,0,0,1-.33.21,1,1,0,0,1-1.09-.21Z"/></g></g></svg>