<svg xmlns="http://www.w3.org/2000/svg" fill="#ffffff20" viewBox="0 0 85.29 43.85">   <filter id="colorMeHueRotate">
    <feColorMatrix in="SourceGraphic"
        type="hueRotate"
        values="80" />
  </filter><path filter="url(#colorMeHueRotate)" d="M36.1 43.5c0-.7.93-1.2 2.38-1.28 1.46-.09 1.46-.09 1.54-1.61.16-3.08 2.59-3.08 2.75 0 .08 1.52.08 1.52 1.53 1.6 1.46.09 2.38.59 2.38 1.29 0 .28-1.03.35-5.29.35-4.25 0-5.29-.07-5.29-.35zm26 .02c.05-.18.35-.37.66-.41.34-.05.6-.31.64-.66.1-.7.58-.67.7.05.04.3.32.56.64.6 1.43.22.73.75-1 .75-1.28 0-1.73-.09-1.65-.33zm-43.13-5.48c-1.2-.51-1.65-1.76-1.65-4.57 0-2.58 0-2.58-2.4-2.58-3.65 0-5.02-.83-5-3.04 0-2.12 1.12-2.78 4.73-2.78 2.66 0 2.66 0 2.66-2.52 0-4.04 1.25-5.66 3.76-4.9 1.65.49 2.06 1.44 2.06 4.7 0 2.72 0 2.72 2.66 2.72 3.75 0 4.75.6 4.75 2.83 0 2.16-1.39 2.99-5 2.99-2.36 0-2.36 0-2.45 2.9-.11 3.81-1.59 5.32-4.12 4.25zm58.33-2.86c-.29-.31-.45-1.08-.5-2.31-.09-1.85-.09-1.85-1.93-1.93-4.03-.17-4.03-3.37 0-3.54 1.84-.08 1.84-.08 1.92-1.93.18-4.03 3.37-4.03 3.55 0 .08 1.85.08 1.85 1.92 1.93 4.03.17 4.03 3.37 0 3.54-1.84.08-1.84.08-1.92 1.93-.1 2.14-.5 2.78-1.77 2.78-.48 0-1.04-.2-1.27-.47zm-27.53-6.32c-.1-.1-.18-.63-.18-1.2 0-1 0-1-1.02-1-2.07 0-2.15-1.65-.09-1.8 1.07-.09 1.09-.1 1.17-1.2.13-1.86 1.8-1.51 1.8.38 0 .65.1.74.96.81 1.86.16 1.8 1.8-.07 1.8-.81 0-.9.08-.9.78 0 1.39-.92 2.18-1.67 1.43zM1.36 19.08c-.1-.1-.18-.4-.18-.65 0-.29-.24-.5-.6-.55-.76-.11-.78-.86-.02-.96.36-.06.61-.3.67-.67.04-.31.26-.58.47-.58.22 0 .44.27.48.58.06.36.3.61.67.67.31.04.57.26.57.47 0 .22-.26.44-.57.48a.76.76 0 00-.67.64c-.08.59-.51.88-.82.57zM78.88 4.79c-.1-.1-.18-.51-.18-.92 0-.63-.12-.74-.86-.81-1.23-.12-1.24-1.1-.02-1.23.74-.07.86-.19.93-.92.12-1.21 1.1-1.21 1.22 0 .07.73.2.85.93.92.64.07.84.21.84.62 0 .4-.2.54-.84.6-.74.08-.86.2-.93.93-.08.8-.66 1.24-1.09.81z"/></svg>
